<svg width="24" height="24" viewBox="0 0 24 24" fill="none" xmlns="http://www.w3.org/2000/svg">
<path fill-rule="evenodd" clip-rule="evenodd" d="M19 12C19 15.866 15.866 19 12 19C8.13401 19 5 15.866 5 12C5 8.13401 8.13401 5 12 5C15.866 5 19 8.13401 19 12ZM15.0003 8.35413C15.4047 8.19861 15.802 8.59593 15.6464 9.0003L14.1195 12.9703C13.9164 13.4985 13.499 13.9159 12.9708 14.1191L9.00073 15.646C8.59636 15.8015 8.19904 15.4042 8.35456 14.9999L9.88151 11.0298C10.0847 10.5016 10.5021 10.0842 11.0302 9.88107L15.0003 8.35413ZM11.9994 13.2727C12.7023 13.2727 13.2721 12.7029 13.2721 12C13.2721 11.2971 12.7023 10.7273 11.9994 10.7273C11.2965 10.7273 10.7267 11.2971 10.7267 12C10.7267 12.7029 11.2965 13.2727 11.9994 13.2727Z" fill="white" style="mix-blend-mode:overlay"/>
</svg>
