<svg width="24" height="24" viewBox="0 0 24 24" fill="none" xmlns="http://www.w3.org/2000/svg">
<path d="M8.18384 4.63867H14.4934C14.4592 4.07812 14.1379 3.78418 13.5295 3.78418H9.15454C8.54614 3.78418 8.22485 4.07812 8.18384 4.63867ZM7.06274 6.45703H15.6145C15.5188 5.8623 15.2317 5.52734 14.5686 5.52734H8.11548C7.45239 5.52734 7.15845 5.8623 7.06274 6.45703ZM7.71216 18.8916H15.1702C16.3596 18.8916 17.05 18.208 17.05 16.8613V9.5332C17.05 8.17969 16.3528 7.49609 14.9856 7.49609H7.71216C6.34497 7.49609 5.64771 8.17969 5.64771 9.5332V16.8613C5.64771 18.208 6.34497 18.8916 7.71216 18.8916ZM9.27759 14.9199C8.01978 14.9199 7.09692 15.6514 6.7688 16.4717V9.60156C6.7688 8.94531 7.11743 8.61035 7.74634 8.61035H14.9514C15.5735 8.61035 15.929 8.94531 15.929 9.60156V16.0889C15.4436 15.4463 14.5618 14.9336 13.3997 14.9336C11.5471 14.9336 10.385 16.2598 10.385 17.2988C10.385 17.5107 10.4329 17.668 10.5012 17.7773H9.69458C9.65356 17.627 9.63306 17.4629 9.63306 17.2988C9.63306 16.5264 10.0022 15.8018 10.6106 15.2412C10.2551 15.0293 9.81763 14.9199 9.27759 14.9199ZM13.3997 14.1611C14.1721 14.1611 14.8284 13.4775 14.8284 12.582C14.8284 11.7002 14.1721 11.0439 13.3997 11.0439C12.634 11.0439 11.9641 11.7207 11.9709 12.5957C11.9709 13.4775 12.634 14.1611 13.3997 14.1611ZM9.28442 14.25C9.95435 14.25 10.5286 13.6484 10.5286 12.8623C10.5286 12.0967 9.95435 11.5293 9.28442 11.5293C8.6145 11.5293 8.03345 12.1104 8.03345 12.8691C8.03345 13.6484 8.6145 14.25 9.28442 14.25Z" fill="white" fill-opacity="0.6"/>
</svg>
