<svg width="12" height="12" viewBox="0 0 12 12" fill="none" xmlns="http://www.w3.org/2000/svg">
<path d="M5.99414 11.6758C9.09961 11.6758 11.6719 9.10352 11.6719 5.99805C11.6719 2.89258 9.09375 0.320312 5.98828 0.320312C2.88867 0.320312 0.316406 2.89258 0.316406 5.99805C0.316406 9.10352 2.88867 11.6758 5.99414 11.6758ZM5.99414 7.89062C4.35938 7.89062 3.09961 8.47656 2.52539 9.13867C1.78125 8.30664 1.33008 7.21094 1.33008 5.99805C1.33008 3.40234 3.39844 1.32227 5.98828 1.32227C8.58398 1.32227 10.6641 3.40234 10.6699 5.99805C10.6699 7.21094 10.2188 8.3125 9.46875 9.13867C8.90039 8.47656 7.63477 7.89062 5.99414 7.89062ZM5.99414 6.95898C7.06641 6.9707 7.89844 6.05664 7.89844 4.86719C7.89844 3.74805 7.06055 2.81641 5.99414 2.81641C4.93359 2.81641 4.08398 3.74805 4.0957 4.86719C4.0957 6.05664 4.92773 6.95312 5.99414 6.95898Z" fill="white" fill-opacity="0.25"/>
</svg>
