<svg width="14" height="12" viewBox="0 0 14 12" fill="none" xmlns="http://www.w3.org/2000/svg">
<path d="M8 11.6758C11.1055 11.6758 13.6777 9.10352 13.6777 5.99805C13.6777 2.89258 11.0996 0.320312 7.99414 0.320312C5.09961 0.320312 2.67969 2.54688 2.36328 5.36523C2.65625 5.30664 3.07227 5.2832 3.38867 5.32422C3.69922 3.05664 5.62695 1.32227 7.99414 1.32227C10.5898 1.32227 12.6758 3.40234 12.6758 5.99805C12.6758 7.2168 12.2188 8.31836 11.457 9.14453C10.9062 8.5 9.64062 7.89062 7.99414 7.89062C7.47852 7.89062 6.99805 7.95508 6.56445 8.06055C6.62891 8.32422 6.66406 8.61133 6.66406 8.89258C6.66406 9.77148 6.33594 10.5859 5.79688 11.2129C6.47656 11.5117 7.22656 11.6758 8 11.6758ZM7.99414 6.96484C9.06641 6.9707 9.89844 6.05664 9.89844 4.86719C9.89844 3.74805 9.06055 2.81641 7.99414 2.81641C6.93359 2.81641 6.08398 3.74805 6.08984 4.86719C6.0957 6.05664 6.93359 6.95312 7.99414 6.96484ZM3.06641 11.7285C4.60156 11.7285 5.89648 10.4453 5.89648 8.89844C5.89648 7.3457 4.61914 6.06836 3.06641 6.06836C1.51953 6.06836 0.236328 7.3457 0.236328 8.89844C0.236328 10.4512 1.51953 11.7285 3.06641 11.7285Z" fill="white" fill-opacity="0.25"/>
</svg>
